<?xml version="1.0" encoding="UTF-8"?>
<!DOCTYPE svg PUBLIC "-//W3C//DTD SVG 1.1//EN" "http://www.w3.org/Graphics/SVG/1.1/DTD/svg11.dtd">
<!-- Creator: CorelDRAW 2020 (64-Bit Evaluation Version) -->
<svg xmlns="http://www.w3.org/2000/svg" xml:space="preserve" width="1.64282in" height="1.64282in" version="1.1" style="shape-rendering:geometricPrecision; text-rendering:geometricPrecision; image-rendering:optimizeQuality; fill-rule:evenodd; clip-rule:evenodd"
viewBox="0 0 2280.15 2280.15"
 xmlns:xlink="http://www.w3.org/1999/xlink"
 xmlns:xodm="http://www.corel.com/coreldraw/odm/2003">
 <defs>
  <style type="text/css">
   <![CDATA[
    .fil1 {fill:#341438;fill-rule:nonzero}
    .fil0 {fill:white;fill-rule:nonzero}
   ]]>
  </style>
 </defs>
 <g id="Layer_x0020_1">
  <metadata id="CorelCorpID_0Corel-Layer"/>
  <circle class="fil0" cx="1140.07" cy="1140.07" r="1140.07"/>
  <g id="_2027976813152">
   <path class="fil1" d="M2063.67 989.15l-245.17 0 -58.79 166.78 -111.18 -421.94 -123.59 560.33 -113.18 -689.91 -89.99 384.35 -93.59 0 0 53.99 126.38 0 49.2 -219.17 106.39 659.92 139.18 -534.33 110.39 333.16 97.19 -246.37 116.38 0c-87.59,212.77 -289.96,385.55 -289.96,385.55l-142.38 126.39 -360.35 293.16 -360.35 -293.16 -142.39 -126.39c0,0 -513.93,-439.54 -257.97,-777.9 110.39,-146.38 263.57,-162.78 406.35,-130.78 90.79,20.4 101.18,113.19 112.39,161.18 11.6,48.79 -4,269.56 -4,269.56 0,116.39 103.58,173.18 125.98,183.18l-12.4 -201.97c0,12.8 -4,52.79 -13.2,52.79l-6.8 0.01c-4.8,0 -10.4,-6.4 -10.4,-15.6l0 -39.59c0,0 7.6,-217.17 -4.8,-294.36 -14.8,-92.39 -80.79,-204.37 -178.78,-225.97 -171.18,-37.6 -385.55,-5.2 -531.93,195.57 -279.17,383.15 301.56,877.48 301.56,877.48l163.98 150.78 414.35 349.15 409.15 -345.15 168.78 -155.18c0,0 270.37,-231.57 349.15,-486.34l-45.59 0 0 0.8 -0.01 0z"/>
   <path class="fil1" d="M1114.59 1235.93l0 0c-36.39,0 -65.99,-29.6 -65.99,-65.99l0 -307.16c0,-36.4 29.6,-65.99 65.99,-65.99l0 0c36.4,0 65.99,29.6 65.99,65.99l0 307.16c0,36.4 -29.6,65.99 -65.99,65.99z"/>
  </g>
 </g>
</svg>
