<?xml version="1.0" encoding="UTF-8"?>
<!DOCTYPE svg PUBLIC "-//W3C//DTD SVG 1.1//EN" "http://www.w3.org/Graphics/SVG/1.1/DTD/svg11.dtd">
<!-- Creator: CorelDRAW 2020 (64-Bit Evaluation Version) -->
<svg xmlns="http://www.w3.org/2000/svg" xml:space="preserve" width="1.64282in" height="1.64282in" version="1.1" style="shape-rendering:geometricPrecision; text-rendering:geometricPrecision; image-rendering:optimizeQuality; fill-rule:evenodd; clip-rule:evenodd"
viewBox="0 0 843.31 843.31"
 xmlns:xlink="http://www.w3.org/1999/xlink"
 xmlns:xodm="http://www.corel.com/coreldraw/odm/2003">
 <defs>
  <style type="text/css">
   <![CDATA[
    .fil0 {fill:#341438;fill-rule:nonzero}
    .fil1 {fill:white;fill-rule:nonzero}
   ]]>
  </style>
 </defs>
 <g id="Layer_x0020_1">
  <metadata id="CorelCorpID_0Corel-Layer"/>
  <circle class="fil0" cx="421.66" cy="421.66" r="421.66"/>
  <g id="_2027976813152">
   <path class="fil1" d="M763.25 365.84l-90.68 0 -21.74 61.68 -41.12 -156.06 -45.71 207.24 -41.86 -255.16 -33.28 142.15 -34.61 0 0 19.97 46.74 0 18.2 -81.06 39.35 244.07 51.48 -197.62 40.83 123.22 35.95 -91.12 43.04 0c-32.39,78.69 -107.24,142.6 -107.24,142.6l-52.66 46.74 -133.28 108.43 -133.28 -108.43 -52.66 -46.74c0,0 -190.08,-162.56 -95.41,-287.71 40.83,-54.14 97.48,-60.2 150.29,-48.37 33.58,7.54 37.42,41.86 41.57,59.61 4.29,18.05 -1.48,99.7 -1.48,99.7 0,43.05 38.31,64.05 46.59,67.75l-4.59 -74.7c0,4.73 -1.48,19.52 -4.88,19.52l-2.51 0c-1.77,0 -3.85,-2.37 -3.85,-5.77l0 -14.64c0,0 2.81,-80.32 -1.77,-108.87 -5.47,-34.17 -29.88,-75.59 -66.12,-83.57 -63.31,-13.91 -142.6,-1.92 -196.73,72.33 -103.25,141.71 111.53,324.54 111.53,324.54l60.65 55.77 153.25 129.13 151.32 -127.65 62.42 -57.39c0,0 99.99,-85.65 129.13,-179.87l-16.86 0 0 0.3 -0 0z"/>
   <path class="fil1" d="M412.23 457.11l0 0c-13.46,0 -24.41,-10.95 -24.41,-24.41l0 -113.6c0,-13.46 10.95,-24.41 24.41,-24.41l0 0c13.46,0 24.41,10.95 24.41,24.41l0 113.6c0,13.46 -10.95,24.41 -24.41,24.41z"/>
  </g>
 </g>
</svg>
